<svg width="183" height="333" viewBox="0 0 183 333" fill="none" xmlns="http://www.w3.org/2000/svg">
<path fill-rule="evenodd" clip-rule="evenodd" d="M136.345 137.05C149.874 138.428 171.255 133.744 180.205 125.1C183.26 122.154 183.027 115.3 180.518 110.559C179.194 108.061 183.28 101.269 178.435 97.6687C170.709 91.9266 159.589 84.57 147.658 78.7841C148.357 77.0932 148.736 75.2341 148.716 73.2653C148.676 69.5704 147.378 64.0357 141.396 58.6512C141.056 58.3441 140.69 58.0464 140.324 57.7466L155.484 39.4841C157.839 36.398 158.445 33.1112 157.154 30.4519C156.043 28.1608 153.64 26.7098 150.885 26.6646C145.255 26.525 138.608 28.196 132.678 30.6679C134.096 26.1548 135.334 21.6982 135.893 18.1003C136.645 13.2961 135.174 8.51643 131.847 4.98636C128.473 1.40046 123.7 -0.39016 118.751 0.0711211L118.75 0.0717858C118.298 0.11366 117.841 0.176139 117.396 0.2559C106.525 2.20538 96.8377 9.7341 89.3546 22.0411C86.79 22.5622 83.0834 24.0385 79.9132 28.1016C75.1558 34.1973 72.6823 44.6047 73.045 55.9952C67.1471 61.0035 62.0697 67.9885 58.938 74.2165C52.8385 86.3467 50.6651 97.8734 48.1005 119.123C48.0712 119.365 45.3408 145.137 46.0016 152.196C46.17 153.998 46.0455 154.836 45.9983 155.07C45.8506 155.29 45.4985 155.736 45.2337 156.071C43.5235 158.239 40.66 161.868 39.7517 167.799C38.8706 173.549 39.8169 178.41 40.5076 181.96C40.6986 182.94 40.9468 184.213 41.02 184.959C40.4005 185.886 39.729 186.507 38.4108 187.69C35.2492 190.529 30.4726 194.819 28.2586 204.32C26.1145 213.529 25.9355 222.548 26.0613 230.923C26.0686 231.408 26.0406 231.951 25.9841 232.532C25.8816 232.917 25.7532 233.408 25.6899 233.602C25.4144 234.445 25.0977 235.275 24.765 236.097C23.9957 237.999 23.1146 239.856 22.2076 241.696C19.9158 246.344 17.4277 250.893 15.0739 255.509C9.48413 266.473 2.59335 286.288 0.1844 298.401C-0.501018 301.849 2.8216 305.172 6.06303 305.472C9.8681 305.824 12.4554 303.058 13.1428 299.6C15.4346 288.076 22.8272 268.663 28.1847 258.287C29.2574 256.209 30.3861 254.136 31.5007 252.049C55.6866 265.196 114.448 293.598 139.772 305.622C138.654 309.506 136.265 312.971 132.885 315.554C126.157 320.684 134.542 330.764 141.243 325.649C147.831 320.621 152.835 312.287 153.926 304.439C153.96 304.187 153.986 303.933 154.02 303.681C154.039 303.462 154.066 303.243 154.079 303.025C154.106 302.74 154.119 302.454 154.133 302.167C154.133 302.133 154.133 302.099 154.133 302.066C154.159 301.469 154.153 300.868 154.119 300.266C154.119 300.183 154.113 300.101 154.106 300.02C153.78 294.647 151.451 288.938 146.853 281.562C145.422 279.269 144.617 277.369 144.184 276.013C148.223 272.322 150.233 267.196 149.814 261.358C149.501 257.111 147.991 253.024 145.495 247.4C145.102 246.526 144.73 245.715 144.384 244.968C146.014 243.101 147.498 240.562 148.383 237.097C152.043 222.764 144.969 212.587 140.285 205.852C139.027 204.044 137.217 201.44 136.664 199.99C136.884 199.583 137.237 198.967 137.796 198.053C139.905 194.626 143.485 186.308 136.731 176.578C138.195 173.454 139.446 168.045 136.279 160.855C134.974 157.902 133.677 155.545 132.525 153.465C131.707 151.974 130.988 150.67 130.336 149.276C133.909 145.996 136.019 141.671 136.345 137.05" fill="#030D54"/>
<path fill-rule="evenodd" clip-rule="evenodd" d="M94.9631 332.383C78.1051 334.197 73.3052 318.461 66.5462 299.767C44.9189 239.946 12.7914 300.126 14.7239 293.03C22.2655 265.336 39.2852 238.388 39.17 230.726C39.0596 223.394 39.6299 211.22 41.1105 206.353C43.8928 197.211 48.3101 198.514 52.6734 191.026C56.5371 184.396 51.4537 177.989 52.7114 169.779C53.7235 163.166 60.2343 163.585 59.0552 150.977C58.5913 146.023 60.8978 122.496 61.1161 120.69C63.4931 100.994 65.375 90.59 70.6527 80.0929C74.9223 71.6017 82.0766 64.3901 86.8059 62.6254C84.2486 46.1096 89.4731 34.0671 92.463 34.8933C93.8218 35.2682 93.9396 43.4197 93.9396 43.4197C94.0807 42.7849 102.25 16.2752 119.713 13.1439C121.563 12.8123 123.232 14.2247 122.942 16.0785C122.01 22.0339 118.159 32.8056 117.436 34.9937C113.554 46.7417 106.208 59.5772 106.208 59.5772C117.101 58.5017 135.541 66.7496 135.607 73.397C135.647 77.4768 114.741 68.1953 112.635 74.1514C111.305 77.9121 118.947 82.3648 116.773 85.9048C114.136 90.1972 96.0118 83.2813 94.6843 87.9666C93.2795 92.925 106.479 94.9583 106.855 98.9696C107.306 103.792 96.3732 106.018 96.7485 110.03C97.3421 116.372 111.997 110.629 112.372 114.641C112.747 118.652 99.9114 121.972 101.356 126.797C102.829 131.717 111.584 127.865 119.991 131.127C123.693 132.563 124.681 137.332 120.836 140.153C116.097 143.63 115.375 146.732 116.754 150.65C118.999 157.024 121.708 160.303 124.279 166.133C126.098 170.255 124.842 172.15 122.834 172.338C118.695 172.724 118.096 175.815 123.679 181.363C127.269 184.933 128.527 188.109 126.623 191.205C123.988 195.497 123.172 197.597 123.453 200.606C124.503 211.818 139.387 219.351 135.68 233.859C134.336 239.115 130.849 236.333 129.212 240.532C128.227 243.066 130.07 244.974 133.511 252.714C137.211 261.03 138.329 265.079 133.757 267.422C128.926 269.896 128.34 279.975 135.727 288.482C151.079 306.16 127.402 328.894 94.9631 332.383" fill="#63FFD4"/>
<path fill-rule="evenodd" clip-rule="evenodd" d="M119.816 273.994C120.385 271.324 120.591 267.759 120.335 263.815C119.858 255.916 117.401 249.419 114.72 249.595C112.083 249.768 110.213 256.294 110.704 264.445C110.969 268.524 111.859 272.208 113.036 274.771C114.213 277.34 115.646 278.797 116.96 278.612C118.285 278.427 119.245 276.659 119.816 273.994ZM100.924 283.365C100.293 280.267 99.007 276.308 97.3427 272.048C95.6844 267.785 93.9509 264 92.3179 261.291C90.6862 258.591 89.1157 256.977 87.8041 257.265C86.5131 257.548 85.7338 259.727 85.7305 263.073C85.7232 266.409 86.541 270.901 88.3497 275.546C90.1618 280.188 92.6007 284.05 94.8652 286.502C97.1331 288.966 99.182 290.044 100.325 289.38C101.486 288.707 101.55 286.456 100.924 283.365ZM100.389 184.623C99.7304 184.708 99.1754 185.22 98.7907 186.227C98.6184 186.691 98.4879 187.254 98.4048 187.909C98.3369 188.533 98.3129 189.239 98.3422 190.003C98.4766 193.022 99.4755 196.846 101.231 200.73C102.995 204.608 105.175 207.83 107.229 209.914C109.274 212 111.245 212.937 112.375 212.237C113.511 211.533 113.736 209.573 113.297 206.793C112.852 204.02 111.711 200.463 110.024 196.755C108.346 193.043 106.459 189.889 104.784 187.754C104.375 187.224 103.972 186.754 103.569 186.347C103.197 185.956 102.818 185.619 102.443 185.347C101.761 184.856 101.049 184.539 100.389 184.623ZM102.324 245.331C101.054 245.684 99.4934 244.665 98.1965 242.54C96.9022 240.431 95.9339 237.24 95.7689 233.729C95.5945 230.216 96.1888 227.097 97.1238 224.916C98.0607 222.729 99.3331 221.446 100.661 221.502C103.364 221.623 105.123 227.072 105.408 233.246C105.556 236.353 105.381 239.119 104.902 241.272C104.421 243.41 103.621 244.972 102.324 245.331V245.331Z" fill="#030D54"/>
<path fill-rule="evenodd" clip-rule="evenodd" d="M156.868 74.9019C152.429 73.4363 146.087 74.5642 140.311 79.5506C138.508 78.4512 136.491 77.8098 134.335 77.7526C134.229 77.7506 134.129 77.7486 134.029 77.7486H134.023C127.801 77.75 122.573 82.6725 120.56 89.7127C113.013 88.4837 92.1315 85.054 84.3343 83.4715C79.3953 82.4671 76.4248 84.0285 74.8017 85.5147C71.0226 88.9756 71.547 94.6107 71.6195 95.2421C71.8484 97.2428 73.5467 98.719 75.5164 98.719C75.6648 98.719 75.8159 98.711 75.9669 98.6931C78.1217 98.4472 79.6688 96.503 79.4226 94.3515C79.3375 93.6064 79.5025 91.853 80.1094 91.2973C80.4894 90.949 81.4842 90.8972 82.7692 91.1584C90.9609 92.8214 112.485 96.3488 119.713 97.5233C120.228 107.012 126.15 114.369 133.723 114.57C133.83 114.573 133.929 114.574 134.036 114.574C141.941 114.574 148.25 106.629 148.383 96.4857C148.443 92.279 147.445 88.4186 145.695 85.3079C149.122 82.4645 152.502 81.7234 154.399 82.3502C154.632 82.4259 154.858 82.5296 155.064 82.6752L163.402 87.5466L163.635 85.7898L163.655 85.6077C164.074 80.5256 161.473 76.424 156.868 74.9019" fill="#FF3F64"/>
<path fill-rule="evenodd" clip-rule="evenodd" d="M144.018 96.4272C143.918 104.187 139.36 110.36 133.843 110.213C128.326 110.067 123.934 103.656 124.039 95.8954C124.143 88.1354 128.699 81.9626 134.216 82.1095C139.739 82.2564 144.124 88.6665 144.018 96.4272" fill="#FF7264"/>
</svg>
