<svg width="197" height="363" viewBox="0 0 197 363" fill="none" xmlns="http://www.w3.org/2000/svg">
<path fill-rule="evenodd" clip-rule="evenodd" d="M190.4 242.978C182.632 241.955 175.349 237.576 170.227 231.652C170.227 231.649 170.234 231.644 170.234 231.642C169.761 231.116 169.295 230.557 168.848 229.944C165.716 225.676 164.081 220.751 163.845 217.763C163.201 209.544 162.196 200.721 159.248 191.893C156.208 182.784 151.125 179.017 147.763 176.524C146.364 175.485 145.648 174.938 144.952 174.085C144.959 173.348 145.084 172.078 145.182 171.099C145.53 167.558 146.016 162.707 144.624 157.151C143.186 151.422 140.04 148.128 138.169 146.16C137.873 145.855 137.493 145.451 137.322 145.248C137.256 145.024 137.059 144.214 137.059 142.432C137.059 135.455 132.016 110.446 131.963 110.212C127.498 89.621 124.307 78.5233 117.209 67.193C113.566 61.3758 107.943 54.9952 101.698 50.626C101.009 39.4301 97.627 29.4567 92.4006 23.918C88.917 20.2258 85.1458 19.1184 82.5821 18.8419C74.1111 7.46574 63.9164 0.972368 53.0729 0.0570054C52.629 0.0190018 52.1752 0 51.7274 0H51.7267C46.8293 0 42.3101 2.19242 39.3282 6.01505C36.3935 9.77807 35.3855 14.5973 36.5636 19.237C37.4462 22.7117 39.0655 26.9662 40.8727 31.2593C34.8261 29.3794 28.1563 28.35 22.6436 29.002C19.9434 29.2982 17.7186 30.9395 16.8387 33.2872C15.8162 36.011 16.7119 39.1765 19.3103 41.9861L35.8557 58.4967C35.5254 58.8237 35.1912 59.1493 34.8852 59.4822C29.5136 65.3059 28.748 70.8486 29.0507 74.4733C29.2116 76.4043 29.754 78.1918 30.5932 79.7853C19.4187 86.5467 9.18849 94.7738 2.13261 101.109C-2.29136 105.08 2.34537 111.362 1.27566 113.932C-0.752788 118.808 -0.352221 125.546 2.91141 128.153C12.4889 135.806 33.8923 138.441 47.0381 135.853C47.7821 140.351 50.2472 144.397 54.0552 147.286C53.545 148.711 52.9599 150.055 52.2901 151.591C51.357 153.734 50.2984 156.163 49.2918 159.176C46.8411 166.513 48.5675 171.699 50.2866 174.627C44.5585 184.78 48.8328 192.605 51.2125 195.77C51.8475 196.616 52.2494 197.187 52.5003 197.566C52.0938 199.038 50.5565 201.755 49.4894 203.642C45.5133 210.67 39.5061 221.292 44.4141 235.003C45.6007 238.318 47.2889 240.671 49.0593 242.352C48.7848 243.115 48.4946 243.945 48.1925 244.837C46.2567 250.577 45.1522 254.72 45.2388 258.911C45.3577 264.672 47.8011 269.511 52.1017 272.758C51.8016 274.127 51.1849 276.063 49.9924 278.441C43.9196 290.561 43.014 298.068 46.8404 306.214C43.3397 315.132 41.7316 324.462 42.9346 334.102C44.0621 343.132 47.1438 351.487 51.0287 359.677C52.5094 362.799 56.9971 363.607 59.8004 361.971C63.0043 360.102 63.5868 356.353 62.1001 353.219C59.7104 348.18 57.814 342.991 56.6721 337.73C73.2864 323.677 137.512 264.187 161.356 240.835C168.927 249.07 179.001 254.272 190.4 255.772C193.835 256.225 196.809 252.508 196.809 249.375C196.809 245.542 193.848 243.432 190.4 242.978" fill="#030D54"/>
<path fill-rule="evenodd" clip-rule="evenodd" d="M95.225 332.134C101.987 330.575 108.303 327.372 113.742 323.09C125.929 313.49 132.765 300.432 136.416 285.631C138.176 278.507 140.284 271.813 144.126 265.479C150.594 254.798 161.494 244.656 163.077 242.562C156.379 236.39 151.559 226.289 150.968 218.769C150.403 211.573 149.576 203.702 146.995 195.969C144.014 187.046 139.043 188.037 134.079 181.097C129.679 174.954 134.079 168.209 132.089 160.278C130.493 153.89 124.143 154.895 124.143 142.432C124.143 137.534 119.72 114.688 119.34 112.938C115.2 93.8525 112.399 83.8287 106.258 74.0238C101.29 66.0928 93.6102 59.6801 88.808 58.3827C89.8009 41.9625 83.5704 30.6388 80.7133 31.7212C79.4151 32.2139 80.0468 40.213 80.0468 40.213C79.8504 39.6037 69.4035 14.3706 51.9835 12.8996C50.1395 12.7436 48.6305 14.2802 49.0856 16.0709C50.5467 21.8226 55.3134 32.0259 56.2229 34.1043C61.1098 45.2629 69.4948 57.1699 69.4948 57.1699C58.7104 57.1129 41.3783 66.8824 41.9227 73.4033C42.2576 77.4055 61.9142 66.3962 64.5278 72.0411C66.1773 75.6049 59.0886 80.6679 61.5465 83.9382C64.5278 87.9043 81.6733 79.4682 83.4056 83.9382C85.2384 88.6696 72.4754 91.8691 72.4754 95.8353C72.4754 100.603 83.4056 101.783 83.4056 105.75C83.4056 112.02 68.5013 107.732 68.5013 111.698C68.5013 115.663 81.3982 117.743 80.4244 122.604C79.4302 127.56 70.4883 124.586 62.5394 128.552C59.0407 130.298 58.5094 135.062 62.5394 137.475C67.5077 140.449 68.5013 143.424 67.5077 147.389C65.891 153.841 63.5336 157.303 61.5465 163.252C60.1412 167.458 61.5465 169.201 63.5336 169.201C67.6305 169.201 68.5013 172.175 63.5336 178.123C60.3369 181.95 59.3972 185.178 61.5465 188.037C64.5278 192.003 65.5206 193.985 65.5206 196.96C65.5206 208.044 51.6105 216.788 56.5788 230.668C58.3781 235.696 61.5465 232.651 63.5336 236.617C64.7326 239.009 63.1008 241.048 60.4354 248.949C57.5717 257.436 57.4837 260.364 61.5465 263.385C63.4036 264.766 61.8216 275.355 59.9646 281.925C54.9332 299.722 63.4121 298.229 59.9646 308.521C55.8887 320.688 55.0908 322.941 54.9963 328.02C54.9142 332.443 57.0352 341.105 58.3781 343.91C60.9397 343.325 66.9824 333.695 77.2796 333.953C84.0767 334.124 88.5723 333.668 95.225 332.134" fill="#63FFD4"/>
<path fill-rule="evenodd" clip-rule="evenodd" d="M57.6909 97.8318C57.2122 98.4477 55.8864 98.2439 54.2112 97.6476C52.5538 97.0645 50.4892 96.1675 48.6906 95.9951C47.7568 95.8962 46.8546 95.9545 46.1198 96.1065C45.3751 96.2533 44.7828 96.4774 44.2568 96.7775C43.7203 97.0723 43.3578 97.2899 43.0196 97.5952C42.6867 97.9045 42.4694 98.2478 42.1042 98.3546C41.7503 98.4647 41.2033 98.3042 40.8434 97.5939C40.4797 96.8961 40.4842 95.6118 41.0516 94.4625C41.5645 93.289 42.6959 92.0749 44.1806 91.3397C45.6608 90.5836 47.441 90.2533 49.256 90.4401C51.1282 90.6373 52.6451 91.324 53.8336 92.0762C55.0248 92.8402 55.8949 93.6815 56.5266 94.4455C57.7749 95.9846 58.1584 97.2302 57.6909 97.8318" fill="#FFFFFE"/>
<path fill-rule="evenodd" clip-rule="evenodd" d="M146.45 167.47L145.563 166.517C145.53 168.586 145.182 171.1 144.953 174.085C144.953 174.085 146.489 175.426 147.343 177.569C148.407 180.252 146.745 183.877 144.624 187.822C138.347 203.052 101.321 223.31 71.1282 239.828C65.2477 243.044 59.605 246.132 54.1507 249.184C52.0881 247.492 49.7727 246.522 47.3122 246.482C38.3421 246.335 30.8673 258.529 30.6178 273.718C30.3676 288.907 37.4366 301.34 46.4067 301.487C55.3774 301.633 62.8516 289.439 63.1018 274.25C63.2068 267.846 62.0077 261.937 59.9169 257.227C65.0415 254.367 70.3468 251.463 75.8634 248.445C115.891 226.547 153.699 205.864 155.348 185.054C155.866 178.467 152.872 172.553 146.45 167.47" fill="#FFC217"/>
<path fill-rule="evenodd" clip-rule="evenodd" d="M81.7677 217.674C81.9942 214.996 81.7552 211.489 81.0178 207.669C79.5757 200.014 76.3725 193.972 73.7728 194.474C71.2157 194.967 70.1939 201.57 71.6813 209.47C72.443 213.42 73.7688 216.909 75.2358 219.267C76.7035 221.631 78.2847 222.877 79.5468 222.535C80.8188 222.191 81.5391 220.346 81.7677 217.674ZM93.7426 292.797C93.5509 289.691 92.8384 285.655 91.7976 281.276C90.7633 276.895 89.5892 272.969 88.3665 270.106C87.1438 267.252 85.8324 265.463 84.5132 265.565C83.215 265.666 82.1564 267.683 81.6954 270.944C81.2312 274.195 81.415 278.686 82.5432 283.459C83.6766 288.233 85.5277 292.329 87.4019 295.029C89.2773 297.739 91.1298 299.069 92.3354 298.579C93.5607 298.081 93.9304 295.895 93.7426 292.797ZM84.8579 184.52C85.0536 184.109 85.2217 183.639 85.3583 183.126C85.514 182.584 85.64 181.988 85.7438 181.338C86.1818 178.703 86.3197 175.089 86.0143 171.093C85.7182 167.095 85.0215 163.484 84.0942 160.879C83.1585 158.271 82.0369 156.684 80.7223 156.613C79.4135 156.54 78.1527 158.279 77.3726 161.046C76.582 163.814 76.2215 167.624 76.5314 171.806C76.8519 175.988 77.7981 179.762 79.1101 182.433C79.4457 183.106 79.8003 183.704 80.1549 184.212C80.5371 184.738 80.916 185.163 81.2844 185.483C82.094 186.171 82.8157 186.351 83.4251 186.114C84.0365 185.876 84.5007 185.266 84.8579 184.52ZM100.475 263.925C99.2284 264.292 97.6761 263.313 96.3654 261.241C95.0579 259.185 94.0565 256.061 93.8398 252.608C93.6146 249.153 94.1524 246.074 95.0402 243.912C95.9307 241.746 97.1639 240.464 98.4739 240.499C101.137 240.577 102.954 245.914 103.329 251.986C103.522 255.041 103.391 257.766 102.952 259.892C102.511 262.004 101.746 263.554 100.475 263.925V263.925Z" fill="#030D54"/>
</svg>
